<svg id="Layer_1" data-name="Layer 1" xmlns="http://www.w3.org/2000/svg" viewBox="0 0 60 60"><defs><style>.cls-1{fill:none;stroke:#000;stroke-linecap:round;stroke-linejoin:round;}</style></defs><path class="cls-1" d="M22.28,53.57V9.6A4.56,4.56,0,0,1,26.84,5h0A4.57,4.57,0,0,1,31.4,9.6V35.9"/><path class="cls-1" d="M31.4,35.9V5.25A4.56,4.56,0,0,1,36,.69h0a4.56,4.56,0,0,1,4.56,4.56V35.9"/><path class="cls-1" d="M40.52,35.9V9.6A4.56,4.56,0,0,1,45.08,5h0A4.56,4.56,0,0,1,49.63,9.6V35.9"/><path class="cls-1" d="M49.63,35.9V18a4.56,4.56,0,0,1,4.56-4.56h0A4.56,4.56,0,0,1,58.75,18V48.86"/><path class="cls-1" d="M11.52,59.15,3,52.68A5.47,5.47,0,0,1,1.89,45h0A5.48,5.48,0,0,1,9.56,44L23.44,54.46S25.21,43.72,37.2,48"/></svg>